# AST/ASF file generated using VICON BodyLanguage
# -----------------------------------------------
:version 1.10
:name VICON
:units
  mass 1.0
  length 0.45
  angle deg
:documentation
   .ast/.asf automatically generated from VICON data using
   VICON BodyBuilder and BodyLanguage model FoxedUp or BRILLIANT.MOD
:root
   order TX TY TZ RX RY RZ
   axis XYZ
   position 0 0 0  
   orientation 0 0 0 
:bonedata
  begin
     id 1 
     name lhipjoint
     direction 0.677091 -0.635792 0.370561 
     length 2.74323 
     axis 0 0 0  XYZ
  end
  begin
     id 2 
     name lfemur
     direction 0.34202 -0.939693 0  
     length 7.44995  
     axis 0 0 20  XYZ
    dof rx ry rz
    limits (-160.0 20.0)
           (-70.0 70.0)
           (-60.0 70.0)
  end
  begin
     id 3 
     name ltibia
     direction 0.34202 -0.939693 0   
     length 7.34467   
     axis 0 0 20   XYZ
    dof rx
    limits (-10.0 170.0)
  end
  begin
     id 4 
     name lfoot
     direction 0.101953 -0.280114 0.954537   
     length 1.72105   
     axis -90 7.62852e-016 20   XYZ
    dof rx rz
    limits (-45.0 90.0)
           (-70.0 20.0)
  end
  begin
     id 5 
     name ltoes
     direction 1.53537e-011 -4.21915e-011 1   
     length 0.865872   
     axis -90 7.62852e-016 20   XYZ
    dof rx
    limits (-90.0 20.0)
  end
  begin
     id 6 
     name rhipjoint
     direction -0.695735 -0.620586 0.361699   
     length 2.81045  
     axis 0 0 0  XYZ 
  end
  begin
     id 7 
     name rfemur
     direction -0.34202 -0.939693 0   
     length 7.29387   
     axis 0 0 -20   XYZ
    dof rx ry rz
    limits (-160.0 20.0)
           (-70.0 70.0)
           (-70.0 60.0)
  end
  begin
     id 8 
     name rtibia
     direction -0.34202 -0.939693 0   
     length 7.44935   
     axis 0 0 -20   XYZ
    dof rx
    limits (-10.0 170.0)
 end
 begin
     id 9 
     name rfoot
     direction -0.104163 -0.286184 0.952496   
     length 1.77731  
     axis -90 -7.62852e-016 -20   XYZ
    dof rx rz
    limits (-45.0 90.0)
           (-20.0 70.0)
  end
  begin
     id 10 
     name rtoes
     direction -1.5355e-011 -4.21888e-011 1   
     length 0.892424   
     axis -90 -7.62852e-016 -20   XYZ
    dof rx
    limits (-90.0 20.0)
  end
  begin
     id 11 
     name lowerback
     direction 0.0100202 0.997226 -0.0737589   
     length 2.16892   
     axis 0 0 0   XYZ
    dof rx ry rz
    limits (-20.0 45.0)
           (-30.0 30.0)
           (-30.0 30.0)
  end
  begin
     id 12 
     name upperback
     direction 0.00432398 0.999988 -0.00215019   
     length 2.17326   
     axis 0 0 0   XYZ
    dof rx ry rz
    limits (-20.0 45.0)
           (-30.0 30.0)
           (-30.0 30.0)
  end
  begin
     id 13 
     name thorax
     direction -0.00195047 0.999485 0.0320434   
     length 2.18139   
     axis 0 0 0   XYZ
    dof rx ry rz
    limits (-20.0 45.0)
           (-30.0 30.0)
           (-30.0 30.0)
  end
  begin
     id 14 
     name lowerneck
     direction 0.00782762 0.986241 0.165128   
     length 1.88415   
     axis 0 0 0   XYZ
    dof rx ry rz
    limits (-20.0 45.0)
           (-30.0 30.0)
           (-30.0 30.0)
  end
  begin
     id 15 
     name upperneck
     direction 0.00988667 0.981098 -0.193258   
     length 1.9242   
     axis 0 0 0   XYZ
    dof rx ry rz
    limits (-20.0 45.0)
           (-30.0 30.0)
           (-30.0 30.0)
  end
  begin
     id 16
     name head
     direction 0.00252199 0.996513 -0.0833958  
     length 1.93887  
     axis 0 0 0   XYZ
    dof rx ry rz
    limits (-20.0 45.0)
           (-30.0 30.0)
           (-30.0 30.0)
  end
  begin
     id 17 
     name lclavicle
     direction 0.929492 0.368193 -0.0218667  
     length 3.5955  
     axis 0 0 0   XYZ
    dof ry rz
    limits (-20.0 10.0)
           (0.0 20.0)
  end
  begin
     id 18 
     name lhumerus
     direction 1 -4.48972e-011 1.41911e-027   
     length 5.2795   
     axis 180 -30 -90   XYZ
    dof rx ry rz
    limits (-60.0 90.0)
           (-90.0 90.0)
           (-90.0 90.0)
  end
  begin
     id 19
     name lradius
     direction 1 -4.48963e-011 7.05772e-027   
     length 3.53504   
     axis 180 -30 -90   XYZ
    dof rx
    limits (-10.0 170.0)
  end
  begin
     id 20
     name lwrist
     direction 1 -4.48957e-011 9.54866e-027   
     length 1.76752   
     axis -7.69462e-015 90 90   XYZ
    dof ry
    limits (-180.0 0.0)
 end
  begin
     id 21 
     name lhand
     direction 1 -4.48979e-011 1.90973e-026   
     length 0.667948   
     axis -1.21857e-014 90 90   XYZ
    dof rx rz
    limits (-90.0 90.0)
           (-45.0 45.0)
  end
  begin
     id 22 
     name lfingers
     direction 1 -4.48987e-011 3.81946e-026   
     length 0.538517   
     axis -2.43714e-014 90 90   XYZ
    dof rx
    limits (0.0 90.0)
  end
  begin
     id 23
     name lthumb
     direction 0.707107 -6.34962e-011 0.707107   
     length 0.773206   
     axis -90 45 2.85299e-015   XYZ
    dof rx rz
    limits (-45.0 45.0)
           (-45.0 45.0)
  end
  begin
     id 24 
     name rclavicle
     direction -0.898763 0.414256 -0.143584   
     length 3.5176  
     axis 0 0 0   XYZ 
    dof ry rz
    limits (-10.0 20.0)
           (-20.0 0.0)
  end
  begin
     id 25 
     name rhumerus
     direction -1 -4.48971e-011 1.129e-027  
     length 5.25035   
     axis 180 30 90   XYZ
    dof rx ry rz
    limits (-90.0 60.0)
           (-90.0 90.0)
           (-90.0 90.0)
  end
  begin
     id 26 
     name rradius
     direction -1 -4.48955e-011 6.34664e-027   
     length 3.58884   
     axis 180 30 90   XYZ
    dof rx
    limits (-10.0 170.0)
  end
  begin
     id 27 
     name rwrist
     direction -1 -4.48966e-011 9.54866e-027   
     length 1.79442   
     axis -7.69462e-015 -90 -90   XYZ
    dof ry
    limits (-180.0 0.0)
  end
  begin
     id 28
     name rhand
     direction -1 -4.48973e-011 1.90973e-026   
     length 0.779235   
     axis -1.21857e-014 -90 -90   XYZ
    dof rx rz
    limits (-90.0 90.0)
           (-45.0 45.0)
  end
  begin
     id 29
     name rfingers
     direction -1 -4.48984e-011 3.81946e-026   
     length 0.62824   
     axis -2.43714e-014 -90 -90   XYZ
    dof rx
    limits (0.0 90.0)
  end
  begin
     id 30
     name rthumb
     direction -0.707107 -6.34968e-011 0.707107   
     length 0.90203   
     axis -90 -45 -2.85299e-015   XYZ
    dof rx rz
    limits (-45.0 45.0)
           (-45.0 45.0)
  end
:hierarchy
  begin
    root lhipjoint rhipjoint lowerback
    lhipjoint lfemur
    lfemur ltibia
    ltibia lfoot
    lfoot ltoes
    rhipjoint rfemur
    rfemur rtibia
    rtibia rfoot
    rfoot rtoes
    lowerback upperback
    upperback thorax
    thorax lowerneck lclavicle rclavicle
    lowerneck upperneck
    upperneck head
    lclavicle lhumerus
    lhumerus lradius
    lradius lwrist
    lwrist lhand lthumb
    lhand lfingers
    rclavicle rhumerus
    rhumerus rradius
    rradius rwrist
    rwrist rhand rthumb
    rhand rfingers
  end

#!OML:ASF I:\Random Stuff\random\construction\7_22_03\Session 2\subj1.ASF
:FULLY-SPECIFIED
:DEGREES
228
root 4.94377 17.809 -7.18133 15.1049 -32.9343 -3.49305
lowerback 8.45028 1.12441 1.28748
upperback 2.1926 1.59421 0.503633
thorax -2.44481 0.778255 -0.368473
lowerneck -19.0822 -1.05475 -1.41108
upperneck 45.0037 -2.76357 1.68622
head 21.5865 -1.26027 0.430789
rclavicle -1.56543e-015 -3.6477e-014
rhumerus -3.91488 36.6924 -56.5414
rradius 70.2751
rwrist 15.3979
rhand -9.79069 38.3708
rfingers 7.12502
rthumb 16.1852 9.02652
lclavicle -1.56543e-015 -3.6477e-014
lhumerus -31.901 -23.0188 95.5653
lradius 66.7691
lwrist 38.1823
lhand -21.593 63.6262
lfingers 7.12502
lthumb 4.80177 266.448
rfemur -21.5369 3.03138 20.6207
rtibia 13.7984
rfoot -9.73485 -8.93132
rtoes 0.979672
lfemur -23.3475 -0.637378 -13.4825
ltibia 25.1735
lfoot -12.5108 7.43262
ltoes -31.3887
229
root 4.98273 17.8139 -7.13858 15.4578 -33.6038 -3.96384
lowerback 8.29605 1.16214 1.27911
upperback 2.15651 1.64246 0.532549
thorax -2.39702 0.802609 -0.335868
lowerneck -18.9365 -0.811938 -1.52988
upperneck 45.194 -2.20075 1.39855
head 21.6599 -1.12025 0.428709
rclavicle 8.48314e-014 -1.35174e-014
rhumerus -3.00229 37.1855 -56.2394
rradius 69.4792
rwrist 15.2638
rhand -9.60232 38.3459
rfingers 7.12502
rthumb 16.3666 9.01645
lclavicle 8.48314e-014 -1.35174e-014
lhumerus -31.5629 -23.5274 95.7476
lradius 68.1167
lwrist 40.846
lhand -18.0488 60.642
lfingers 7.12502
lthumb 8.22326 269.538
rfemur -21.4789 1.30595 21.1157
rtibia 13.7814
rfoot -10.0749 -10.766
rtoes 2.77407
lfemur -23.194 -0.660225 -13.2689
ltibia 25.1559
lfoot -12.6678 8.07379
ltoes -31.6357
230
root 5.0172 17.8203 -7.09913 15.6816 -34.1788 -4.28751
lowerback 8.12525 1.22027 1.25038
upperback 2.15345 1.71337 0.492342
thorax -2.3041 0.838684 -0.364264
lowerneck -18.7507 -0.74391 -1.24675
upperneck 45.2993 -1.97473 0.858134
head 21.6553 -1.06615 0.141168
rclavicle -9.0944e-014 8.94531e-015
rhumerus -2.21384 37.4547 -55.9907
rradius 68.6372
rwrist 15.2927
rhand -9.58644 38.7213
rfingers 7.12502
rthumb 16.3819 9.39312
lclavicle -9.0944e-014 8.94531e-015
lhumerus -31.0518 -24.2087 95.9252
lradius 69.4262
lwrist 43.2257
lhand -21.7394 63.9925
lfingers 7.12502
lthumb 4.66042 266.079
rfemur -21.511 -0.323469 21.4279
rtibia 14.1023
rfoot -10.5446 -13.0748
rtoes 6.34318
lfemur -22.967 -0.727497 -13.162
ltibia 25.0439
lfoot -12.8052 8.57953
ltoes -31.5025
231
root 5.04542 17.8256 -7.06381 15.7459 -34.7256 -4.48814
lowerback 7.98099 1.29985 1.17921
upperback 2.19909 1.80782 0.411125
thorax -2.17524 0.886817 -0.412887
lowerneck -18.7433 -0.606677 -1.17907
upperneck 45.4464 -1.66396 0.58913
head 21.753 -0.979988 0.0549026
rclavicle 1.36167e-014 -3.27995e-014
rhumerus -1.48766 37.7202 -55.698
rradius 67.8063
rwrist 15.4026
rhand -9.7427 39.5634
rfingers 7.12502
rthumb 16.2314 10.2229
lclavicle 1.36167e-014 -3.27995e-014
lhumerus -30.2187 -24.5414 95.7799
lradius 70.1703
lwrist 42.5653
lhand -21.469 64.8231
lfingers 7.12502
lthumb 4.9215 265.254
rfemur -21.5455 -1.78902 21.5651
rtibia 14.6488
rfoot -10.9526 -15.1556
rtoes 9.81863
lfemur -22.574 -0.844534 -13.1371
ltibia 24.7983
lfoot -12.8476 9.11438
ltoes -31.0148
232
root 5.06521 17.8329 -7.03103 15.7106 -35.3473 -4.62769
lowerback 7.8842 1.39148 1.04489
upperback 2.2216 1.91506 0.340633
thorax -2.09879 0.94101 -0.417435
lowerneck -18.59 -0.549747 -0.880026
upperneck 45.4302 -1.39413 -0.0619826
head 21.6714 -0.918652 -0.284086
rclavicle 1.09332e-015 9.74045e-015
rhumerus -0.758493 38.2299 -55.3974
rradius 66.9617
rwrist 15.428
rhand -9.99356 40.3391
rfingers 7.12502
rthumb 15.9898 10.979
lclavicle 1.09332e-015 9.74045e-015
lhumerus -29.6461 -25.2949 95.9413
lradius 71.5602
lwrist 43.6951
lhand -19.6498 62.3631
lfingers 7.12502
lthumb 6.67786 267.762
rfemur -21.5107 -2.88663 21.4925
rtibia 15.2264
rfoot -10.8502 -16.4575
rtoes 12.9217
lfemur -22.0118 -0.859145 -13.1766
ltibia 24.4149
lfoot -12.9236 9.57701
ltoes -29.6045
233
root 5.07532 17.8485 -7.00073 15.6657 -36.0213 -4.75289
lowerback 7.74579 1.50274 0.914913
upperback 2.21583 2.04915 0.264017
thorax -2.02794 1.00855 -0.432121
lowerneck -18.5675 -0.432895 -0.778626
upperneck 45.6596 -1.13981 -0.332008
head 21.8356 -0.848784 -0.393651
rclavicle -1.35174e-014 -3.55825e-014
rhumerus -0.0974882 38.8743 -55.1491
rradius 66.1222
rwrist 15.3245
rhand -10.42 40.7092
rfingers 7.12502
rthumb 15.5792 11.3166
lclavicle -1.35174e-014 -3.55825e-014
lhumerus -29.0118 -25.9199 95.9576
lradius 72.7531
lwrist 43.4843
lhand -19.6568 63.5678
lfingers 7.12502
lthumb 6.67114 266.557
rfemur -21.4426 -3.26921 21.1332
rtibia 15.7929
rfoot -10.1788 -16.8414
rtoes 14.3932
lfemur -21.3831 -0.69807 -13.2484
ltibia 23.9571
lfoot -13.0612 9.88855
ltoes -27.5574
234
root 5.07813 17.861 -6.97331 15.5491 -36.6529 -4.79909
lowerback 7.60952 1.62502 0.835356
upperback 2.21585 2.20092 0.136621
thorax -1.94833 1.0849 -0.528251
lowerneck -19.0212 -0.222425 -1.04464
upperneck 45.7644 -0.648033 -0.381769
head 22.4377 -0.726656 -0.261385
rclavicle -4.48259e-014 6.16232e-015
rhumerus 0.455163 39.461 -55.0028
rradius 65.2888
rwrist 15.0494
rhand -10.9693 41.0157
rfingers 7.12502
rthumb 15.0501 11.5827
lclavicle -4.48259e-014 6.16232e-015
lhumerus -28.3085 -26.6529 95.9222
lradius 73.9472
lwrist 43.3713
lhand -22.247 66.0696
lfingers 7.12502
lthumb 4.17025 263.991
rfemur -21.2874 -3.02294 20.4575
rtibia 16.3526
rfoot -9.29817 -16.3412
rtoes 13.8033
lfemur -20.7188 -0.345486 -13.3995
ltibia 23.4507
lfoot -13.1467 10.0154
ltoes -26.0383
235
root 5.07647 17.8647 -6.94471 15.284 -37.1974 -4.7276
lowerback 7.54953 1.72762 0.845017
upperback 2.21773 2.33257 -0.0559727
thorax -1.90273 1.15093 -0.74143
lowerneck -18.9733 -0.22193 -0.559546
upperneck 45.8437 -0.542418 -1.06527
head 22.4822 -0.691747 -0.705493
rclavicle -7.65321e-015 -8.74653e-015
rhumerus 0.884088 40.021 -55.0089
rradius 64.4703
rwrist 14.5306
rhand -11.4882 41.5788
rfingers 7.12502
rthumb 14.5501 12.1091
lclavicle -7.65321e-015 -8.74653e-015
lhumerus -27.543 -27.3623 95.8065
lradius 75.1279
lwrist 43.1647
lhand -25.8978 68.2172
lfingers 7.12502
lthumb 0.644439 261.804
rfemur -20.9711 -2.51877 19.5432
rtibia 16.8666
rfoot -8.24057 -15.2141
rtoes 12.9914
lfemur -19.9585 0.00201546 -13.636
ltibia 22.8744
lfoot -13.0429 10.0993
ltoes -25.8582
236
root 5.06906 17.8694 -6.91525 14.9567 -37.6031 -4.55218
lowerback 7.46316 1.76642 0.879032
upperback 2.20783 2.38157 -0.251343
thorax -1.85434 1.17599 -0.962836
lowerneck -19.0911 0.0587691 -0.936826
upperneck 45.9901 0.0406037 -0.950036
head 22.6652 -0.537575 -0.43505
rclavicle 6.22196e-014 -2.62396e-014
rhumerus 1.32383 40.7175 -55.0356
rradius 63.6707
rwrist 13.8342
rhand -11.9315 42.0997
rfingers 7.12502
rthumb 14.123 12.5997
lclavicle 6.22196e-014 -2.62396e-014
lhumerus -26.7428 -27.959 95.6548
lradius 76.3491
lwrist 42.4138
lhand -23.4453 66.6119
lfingers 7.12502
lthumb 3.01306 263.43
rfemur -20.5735 -1.78516 18.4356
rtibia 17.2268
rfoot -6.93759 -13.7964
rtoes 15.442
lfemur -19.2158 0.186975 -13.9132
ltibia 22.2804
lfoot -12.8302 10.2255
ltoes -26.2428
237
root 5.0547 17.8777 -6.88864 14.5578 -37.82 -4.22526
lowerback 7.34241 1.76615 0.868875
upperback 2.19771 2.37565 -0.443509
thorax -1.7901 1.17399 -1.15013
lowerneck -19.0566 0.190363 -0.816936
upperneck 46.0364 0.339831 -1.22935
head 22.6976 -0.445272 -0.541492
rclavicle -5.99336e-014 2.98177e-014
rhumerus 1.64366 41.3839 -55.0648
rradius 63.0235
rwrist 13.2686
rhand -12.2133 42.5811
rfingers 7.12502
rthumb 13.8515 13.0624
lclavicle -5.99336e-014 2.98177e-014
lhumerus -25.8769 -28.5952 95.5568
lradius 77.5071
lwrist 41.1872
lhand -22.9304 66.1418
lfingers 7.12502
lthumb 3.51029 263.907
rfemur -20.0685 -0.770569 17.1352
rtibia 17.2956
rfoot -5.80602 -12.1682
rtoes 16.6644
lfemur -18.5823 0.233664 -14.2594
ltibia 21.7834
lfoot -12.7165 10.2873
ltoes -26.3265
